<?xml version="1.0" encoding="UTF-8" standalone="no"?>
<!-- Created with Inkscape (http://www.inkscape.org/) -->

<svg
   xmlns:dc="http://purl.org/dc/elements/1.1/"
   xmlns:cc="http://creativecommons.org/ns#"
   xmlns:rdf="http://www.w3.org/1999/02/22-rdf-syntax-ns#"
   xmlns:svg="http://www.w3.org/2000/svg"
   xmlns="http://www.w3.org/2000/svg"
   xmlns:sodipodi="http://sodipodi.sourceforge.net/DTD/sodipodi-0.dtd"
   xmlns:inkscape="http://www.inkscape.org/namespaces/inkscape"
   width="1072"
   height="1448"
   viewBox="0 0 283.63333 383.11668"
   version="1.1"
   id="svg8"
   inkscape:version="0.92.0 r"
   sodipodi:docname="read.svg">
  <defs
     id="defs2" />
  <sodipodi:namedview
     id="base"
     pagecolor="#ffffff"
     bordercolor="#666666"
     borderopacity="1.0"
     inkscape:pageopacity="0.0"
     inkscape:pageshadow="2"
     inkscape:zoom="0.42295205"
     inkscape:cx="558.98252"
     inkscape:cy="991.98424"
     inkscape:document-units="mm"
     inkscape:current-layer="layer1"
     showgrid="false"
     units="px"
     inkscape:snap-global="true"
     inkscape:snap-page="true"
     inkscape:window-width="1920"
     inkscape:window-height="1042"
     inkscape:window-x="0"
     inkscape:window-y="18"
     inkscape:window-maximized="0" />
  <metadata
     id="metadata5">
    <rdf:RDF>
      <cc:Work
         rdf:about="">
        <dc:format>image/svg+xml</dc:format>
        <dc:type
           rdf:resource="http://purl.org/dc/dcmitype/StillImage" />
        <dc:title></dc:title>
      </cc:Work>
    </rdf:RDF>
  </metadata>
  <g
     inkscape:label="Layer 1"
     inkscape:groupmode="layer"
     id="layer1"
     transform="translate(0,86.116703)">
    <path
       style="fill:#ffffff;fill-rule:evenodd;stroke:#000000;stroke-width:0.99999994px;stroke-linecap:butt;stroke-linejoin:miter;stroke-opacity:1;fill-opacity:1"
       d="M 3 0 C 1.338 0 0 1.338 0 3 L 0 1445 C 2.9605947e-16 1446.662 1.338 1448 3 1448 L 1069 1448 C 1070.662 1448 1072 1446.662 1072 1445 L 1072 3 C 1072 1.338 1070.662 0 1069 0 L 3 0 z M 368.83008 19.322266 L 433.07031 19.322266 L 433.07031 46.576172 L 645.25586 46.576172 L 645.25586 19.322266 L 709.00977 19.322266 L 709.00977 177.48828 C 709.00977 290.39494 664.23586 312.29492 608.75586 312.29492 C 570.79586 312.29492 544.02945 282.12185 538.18945 241.72852 C 533.32279 275.30851 504.12398 305.48242 469.08398 305.48242 C 448.15732 305.48242 435.99023 308.40211 435.99023 317.16211 C 435.99023 324.46211 441.82917 328.35547 451.5625 328.35547 L 467.62305 328.35547 L 467.62305 360.96289 L 440.85742 360.96289 C 400.46409 360.96289 362.99023 343.9282 362.99023 289.9082 C 362.99023 226.15487 396.56977 195.49609 453.50977 195.49609 C 497.79643 195.49609 508.50391 190.14146 508.50391 146.82812 L 433.07031 146.82812 L 433.07031 176.51562 L 368.83008 176.51562 L 368.83008 19.322266 z M 563.00977 146.82812 L 563.00977 168.72852 C 563.00977 196.95518 576.63636 215.44922 602.42969 215.44922 C 631.14302 215.44922 645.74414 199.38878 645.74414 171.16211 L 645.74414 146.82812 L 563.00977 146.82812 z M 368.83008 377.66797 L 433.55664 377.66797 L 433.55664 408.32812 L 644.76953 408.32812 L 644.76953 377.66797 L 709.00977 377.66797 L 709.00977 671.12891 L 601.45703 671.12891 L 601.45703 586.93555 L 644.76953 586.93555 L 644.76953 509.06836 L 577.60938 509.06836 L 577.60938 601.53516 L 512.88281 601.53516 L 512.88281 509.06836 L 433.55664 509.06836 L 433.55664 586.93555 L 478.81641 586.93555 L 478.81641 671.12891 L 368.83008 671.12891 L 368.83008 377.66797 z M 368.83008 690.27539 L 432.58398 690.27539 L 432.58398 723.36914 L 646.23047 789.06836 L 646.23047 769.11523 L 709.00977 769.11523 L 709.00977 955.99609 L 432.58398 1042.1348 L 432.58398 1076.2031 L 368.83008 1076.2031 L 368.83008 881.04883 L 432.58398 881.04883 L 432.58398 927.2832 L 465.67578 917.0625 L 465.67578 817.29492 L 432.58398 807.07617 L 432.58398 845.03516 L 368.83008 845.03516 L 368.83008 690.27539 z M 524.07617 835.30273 L 524.07617 899.05469 L 629.19727 866.93555 L 524.07617 835.30273 z M 368.83008 1095.3105 L 433.55664 1095.3105 L 433.55664 1125.4844 L 644.76953 1125.4844 L 644.76953 1095.3105 L 709.00977 1095.3105 L 709.00977 1243.7441 C 709.00977 1361.5175 636.4963 1428.6777 543.54297 1428.6777 C 432.58297 1428.6777 368.83008 1361.5188 368.83008 1241.7988 L 368.83008 1095.3105 z M 433.55664 1225.252 L 433.55664 1243.7441 C 434.52997 1295.3308 482.70964 1316.7441 543.54297 1316.7441 C 595.6163 1316.7441 644.76953 1295.3308 644.76953 1243.7441 L 644.76953 1225.252 L 433.55664 1225.252 z "
       id="rect4511"
       transform="matrix(0.26458333,0,0,0.26458333,0,-86.116703)" />
  </g>
</svg>
